<?xml version="1.0" encoding="UTF-8"?>
<svg width="92px" height="88px" viewBox="0 0 92 88" version="1.1" xmlns="http://www.w3.org/2000/svg" xmlns:xlink="http://www.w3.org/1999/xlink">
    <!-- Generator: sketchtool 49.3 (51167) - http://www.bohemiancoding.com/sketch -->
    <title>76C22F14-0553-47B6-98FC-38279D9A6322</title>
    <desc>Created with sketchtool.</desc>
    <defs></defs>
    <g id="Page-1" stroke="none" stroke-width="1" fill="none" fill-rule="evenodd">
        <g id="Flathub---landing-page" transform="translate(-1032.000000, -1396.000000)" fill="#9B9B9B" fill-rule="nonzero" stroke="#979797">
            <g id="Group-9" transform="translate(65.000000, 1279.000000)">
                <g id="Group-8" transform="translate(0.000000, 86.000000)">
                    <g id="Internet" transform="translate(882.000000, 0.000000)">
                        <g id="Group-4" transform="translate(16.000000, 32.000000)">
                            <g id="5-point-star" transform="translate(70.000000, 0.000000)">
                                <path d="M89.1314286,32.3211429 L56.7761633,31.7392653 L46.178449,1.11346939 C46.0222041,0.660897959 45.5965714,0.355591837 45.1116735,0.355591837 C44.6303673,0.359183673 44.2065306,0.668081633 44.0520816,1.12244898 L33.8081633,31.5668571 L1.09730612,32.3211429 C0.628571429,32.3301224 0.211918367,32.6354286 0.0610612245,33.0808163 C-0.0915918367,33.5262041 0.0520816327,34.0218776 0.41844898,34.3164082 L26.5957551,55.44 L16.8618776,84.810449 C16.7074286,85.2791837 16.8708571,85.7856327 17.2677551,86.0711837 C17.6502857,86.3513469 18.1962449,86.3531429 18.5949388,86.0675918 L45.1170612,66.4346122 L71.6409796,86.0675918 C71.8367347,86.2112653 72.0666122,86.2866939 72.3072653,86.2866939 C72.5371429,86.2866939 72.7616327,86.2148571 72.9537959,86.0819592 C73.3506939,85.8053878 73.523102,85.3043265 73.3812245,84.8409796 L64.4932245,55.4417959 L89.8300408,34.3056327 C90.1892245,34.0075102 90.3257143,33.5136327 90.1712653,33.0718367 C90.0150204,32.6318367 89.5983673,32.3301224 89.1314286,32.3211429 Z M62.4835918,54.1918367 C62.1369796,54.4809796 61.996898,54.9479184 62.128,55.3789388 L70.2509388,82.2440816 L45.7833469,64.1340408 C45.5875918,63.9903673 45.3577143,63.9149388 45.1170612,63.9149388 C44.8764082,63.9149388 44.6465306,63.9903673 44.4489796,64.1340408 L20.107102,82.1524898 L28.9717551,55.4040816 C29.1172245,54.9640816 28.9717551,54.472 28.6107755,54.1792653 L4.21322449,34.496 L34.6486531,33.7937959 C35.1191837,33.7794286 35.5376327,33.4723265 35.6866939,33.0269388 L45.1332245,4.95314286 L54.9137959,33.2101224 C55.066449,33.6537143 55.484898,33.9590204 55.9554286,33.968 L86.0801633,34.5085714 L62.4835918,54.1918367 Z" id="Shape"></path>
                            </g>
                        </g>
                    </g>
                </g>
            </g>
        </g>
    </g>
</svg>