<?xml version="1.0" encoding="UTF-8"?>
<svg width="80px" height="80px" viewBox="0 0 80 80" version="1.1" xmlns="http://www.w3.org/2000/svg" xmlns:xlink="http://www.w3.org/1999/xlink">
    <!-- Generator: sketchtool 49.3 (51167) - http://www.bohemiancoding.com/sketch -->
    <title>EB4448AA-3225-4C4D-AF16-DE4902411EBB</title>
    <desc>Created with sketchtool.</desc>
    <defs></defs>
    <g id="Page-1" stroke="none" stroke-width="1" fill="none" fill-rule="evenodd">
        <g id="Flathub---landing-page---list-apartment" transform="translate(-455.000000, -1407.000000)" fill="#9B9B9B" fill-rule="nonzero">
            <g id="Group-11" transform="translate(69.000000, 1304.000000)">
                <g id="Group-10" transform="translate(0.000000, 67.000000)">
                    <g id="guest-managment" transform="translate(293.000000, 0.000000)">
                        <g id="Group-5" transform="translate(16.000000, 32.000000)">
                            <g id="guest-managment" transform="translate(73.000000, 0.000000)">
                                <g id="businessman" transform="translate(4.000000, 4.000000)">
                                    <path d="M39.9433191,43.5744681 C51.9574468,43.5744681 61.7305532,33.8013617 61.7305532,21.787234 C61.7305532,9.77310638 51.9574468,0 39.9433191,0 C27.9291915,0 18.1560851,9.77310638 18.1560851,21.787234 C18.1560851,33.8013617 27.9290213,43.5744681 39.9433191,43.5744681 Z M39.9433191,3.63114894 C49.9538723,3.63114894 58.0994043,11.7765106 58.0994043,21.787234 C58.0994043,31.7979574 49.9540426,39.9433191 39.9433191,39.9433191 C29.9325957,39.9433191 21.787234,31.7977872 21.787234,21.787234 C21.787234,11.7766809 29.9325957,3.63114894 39.9433191,3.63114894 Z" id="Shape"></path>
                                    <path d="M70.9502979,55.3937021 C67.517617,53.6330213 62.0495319,51.163234 55.5106383,49.3989787 C54.6028936,49.1436596 53.6454468,49.6490213 53.3297021,50.5390638 L45.8878298,71.3005957 L43.6347234,60.032 L47.1135319,49.5957447 C47.2978723,49.0425532 47.2057872,48.4326809 46.8617872,47.9591489 C46.5213617,47.4857872 45.9753191,47.205617 45.3901277,47.205617 L34.4965106,47.205617 C33.9113191,47.205617 33.3652766,47.4857872 33.0248511,47.9591489 C32.6808511,48.4325106 32.5885957,49.0425532 32.7731064,49.5957447 L36.2519149,60.032 L33.9988085,71.3005957 L26.5569362,50.5390638 C26.2413617,49.6490213 25.2803404,49.1453617 24.376,49.3989787 C17.8369362,51.163234 12.3688511,53.6330213 8.93634043,55.3937021 C3.42553191,58.2234894 0,63.8085106 0,69.9662979 L0,72.6241702 C0,76.6294468 3.25889362,79.8866383 7.26246809,79.8866383 L72.6241702,79.8866383 C76.6277447,79.8866383 79.8866383,76.629617 79.8866383,72.6241702 L79.8866383,69.9662979 C79.8864681,63.8085106 76.4609362,58.2234894 70.9502979,55.3937021 Z M7.26246809,76.2553191 C5.25889362,76.2553191 3.63131915,74.6258723 3.63131915,72.6241702 L3.63131915,69.9662979 C3.63131915,65.1754894 6.30144681,60.8297872 10.5959149,58.6241702 C13.5853617,57.0905532 18.1916596,54.9930213 23.7094468,53.36 L31.9184681,76.2553191 L7.26246809,76.2553191 Z M42.8723404,50.8369362 L40.0354043,59.3404255 C39.9751489,59.524766 39.9431489,59.7181277 39.9431489,59.909617 C39.9431489,59.7181277 39.9111489,59.5249362 39.8508936,59.3404255 L37.0139574,50.8369362 L42.8723404,50.8369362 Z M36.7126809,76.2553191 L39.9077447,60.2713191 C39.9325957,60.1542128 39.9431489,60.0372766 39.9431489,59.9201702 C39.9431489,60.0372766 39.9538723,60.1542128 39.9785532,60.2713191 L43.1737872,76.2553191 L36.7126809,76.2553191 Z M76.2553191,72.6241702 C76.2553191,74.6258723 74.6275745,76.2553191 72.6241702,76.2553191 L47.968,76.2553191 L56.1771915,53.36 C61.6949787,54.9930213 66.3012766,57.0905532 69.2907234,58.6241702 C73.5885957,60.8297872 76.2553191,65.1756596 76.2553191,69.9662979 L76.2553191,72.6241702 Z" id="Shape"></path>
                                </g>
                            </g>
                        </g>
                    </g>
                </g>
            </g>
        </g>
    </g>
</svg>