<?xml version="1.0" encoding="UTF-8"?>
<svg width="73px" height="82px" viewBox="0 0 73 82" version="1.1" xmlns="http://www.w3.org/2000/svg" xmlns:xlink="http://www.w3.org/1999/xlink">
    <!-- Generator: sketchtool 49.3 (51167) - http://www.bohemiancoding.com/sketch -->
    <title>F1AD0880-B163-4555-B6CF-E55120498FA0</title>
    <desc>Created with sketchtool.</desc>
    <defs></defs>
    <g id="Page-1" stroke="none" stroke-width="1" fill="none" fill-rule="evenodd">
        <g id="Flathub---landing-page---list-apartment" transform="translate(-165.000000, -1406.000000)" fill="#9B9B9B" fill-rule="nonzero" stroke="#979797">
            <g id="Group-11" transform="translate(69.000000, 1304.000000)">
                <g id="Group-10" transform="translate(0.000000, 67.000000)">
                    <g id="Verfied-guests">
                        <g id="Group-4" transform="translate(16.000000, 32.000000)">
                            <g id="verified" transform="translate(72.000000, 0.000000)">
                                <g id="verify-shield-with-checkmark" transform="translate(9.000000, 4.000000)">
                                    <path d="M62.0162414,4.19435159 C53.5752333,1.41095101 44.768801,0 35.8428385,0 C26.7619038,0 17.8954747,1.40657061 9.5038075,4.17590778 C4.14880914,5.85348703 0.110380098,11.2146398 0.110380098,16.6453026 L0.110380098,45.8140634 C0.110380098,49.8712392 2.25798532,56.4220173 6.24452529,60.5784438 C18.8438401,73.4526801 26.8786542,79.9892795 35.8296346,79.9892795 C44.6441746,79.9892795 52.3285057,73.7203458 65.2221289,60.5430548 C69.0117684,56.6108357 70.9945563,50.1428242 70.9945563,45.7850144 L70.9945563,16.6453026 C70.9945563,11.1605764 67.1296313,5.80680115 62.0162414,4.19435159 Z M69.0391028,45.7848991 C69.0391028,49.6562536 67.2064225,55.6718156 63.8156803,59.1904323 C51.3180587,71.963804 43.9422822,78.0429971 35.8297504,78.0429971 C29.4980098,78.0429971 23.1311746,75.0434582 7.65247961,59.2272046 C4.15517945,55.5815562 2.06583361,49.5446686 2.06583361,45.8139481 L2.06583361,16.6453026 C2.06583361,12.1039769 5.59104731,7.44207493 10.1050489,6.02766571 C18.3119772,3.31907781 26.9710816,1.94605187 35.8428385,1.94605187 C44.559739,1.94605187 53.158615,3.32391931 61.4133785,6.04564841 C65.689478,7.39377522 69.0391028,12.0499135 69.0391028,16.6453026 L69.0391028,45.7848991 Z" id="Shape"></path>
                                    <path d="M59.4159967,12.2163689 C51.7521664,9.68783862 43.8072316,8.40530259 35.801721,8.40530259 C27.6764486,8.40530259 19.6890065,9.68149856 12.0755595,12.1938905 C10.3470049,12.7359078 8.42085481,14.6927954 8.42085481,16.6355043 L8.42085481,45.7936599 C8.42085481,48.3255331 10.2838809,52.6648991 12.2618042,54.7297983 C22.4354209,65.1202305 29.9427732,71.56 35.9292431,71.56 C41.6597423,71.56 48.5490587,65.6300865 59.2633409,54.6831124 C61.2212268,52.6488761 62.6838499,48.2944092 62.6838499,45.7595389 L62.6838499,16.6453026 C62.6839657,14.8938329 61.088956,12.7399424 59.4159967,12.2163689 Z M60.7285122,45.7595389 C60.7285122,47.837464 59.4453002,51.6811527 57.8570082,53.3310663 C47.7640049,63.6436888 40.9405922,69.6144092 35.9293589,69.6144092 C32.6237471,69.6144092 27.6388059,67.6469164 13.6702219,53.3801729 C12.0384959,51.6764265 10.3763083,47.8478386 10.3763083,45.7937752 L10.3763083,16.6355043 C10.3763083,15.7446686 11.5725367,14.3921614 12.6769168,14.0462248 C20.1056248,11.5945821 27.8862055,10.3514697 35.801721,10.3514697 C43.5975905,10.3514697 51.3356639,11.6003458 58.8151028,14.0685879 C59.6910783,14.3424784 60.7285122,15.739366 60.7285122,16.6453026 L60.7285122,45.7595389 Z" id="Shape"></path>
                                    <path d="M47.0493719,27.3004035 C46.121044,26.5429395 44.9492545,26.1259942 43.7507096,26.1259942 C42.185814,26.1259942 40.7148515,26.81683 39.7122806,28.024438 L32.7064454,36.5310663 L31.9018173,35.6903746 C30.9070065,34.6525648 29.5670408,34.0809222 28.1293197,34.0809222 C26.7869217,34.0809222 25.5100799,34.5892795 24.533801,35.5122767 C23.5242806,36.4682421 22.949447,37.7581556 22.9151631,39.1442075 C22.8813426,40.5294524 23.3917781,41.8440346 24.3513785,42.8453026 L29.2223491,47.9353314 C30.2024502,48.9580403 31.5780897,49.5443228 32.9963524,49.5443228 C33.081367,49.5443228 33.1586215,49.5428242 33.2123638,49.5389049 C34.6940979,49.4805764 36.0849103,48.7902017 37.0279478,47.6453026 L47.776398,34.6003458 C49.596801,32.3870893 49.2708728,29.1127378 47.0493719,27.3004035 Z M46.2633915,33.3670317 L35.5148254,46.4124496 C34.9257455,47.1277233 34.0579935,47.558732 33.1140294,47.5966571 C33.0768499,47.5986167 33.0382806,47.5990778 32.9951941,47.5990778 C32.1089103,47.5990778 31.2490343,47.2321614 30.6370212,46.5937752 L25.7660506,41.5042075 C25.1667781,40.8785014 24.848031,40.0572911 24.8694584,39.1927378 C24.8905383,38.327147 25.2498238,37.5204611 25.8804845,36.9240346 C26.491571,36.3460519 27.2893654,36.0278963 28.1287406,36.0278963 C29.0267227,36.0278963 29.8641289,36.3850144 30.4859869,37.0340058 L32.0537781,38.6702017 C32.2473197,38.8717003 32.5157993,38.9771758 32.7978303,38.9714121 C33.0778923,38.9611527 33.3400016,38.8312392 33.5174437,38.6157925 L41.2213491,29.2612104 C41.8485351,28.5055908 42.7700294,28.0726225 43.7496672,28.0726225 C44.4976574,28.0726225 45.2288532,28.3329107 45.8092463,28.8063401 C47.1975106,29.9378674 47.4008972,31.9843228 46.2633915,33.3670317 Z" id="Shape"></path>
                                </g>
                            </g>
                        </g>
                    </g>
                </g>
            </g>
        </g>
    </g>
</svg>